#!OML:ASF F:\VICON\USERDATA\INSTALL\rory3\rory3.ASF
:FULLY-SPECIFIED
:DEGREES
2202
root 1.10017 10.1326 -7.0308 342.811 -66.6278 -361.186
lowerback 40.1286 1.6218 1.44938
upperback 14.1217 1.05825 0.00445535
thorax -3.64502 -0.0514896 -1.08494
lowerneck -11.7343 5.80626 -2.07889
upperneck 2.61387 7.98988 0.689787
head 2.76322 3.9725 1.05398
rclavicle -7.70415e-014 4.2689e-014
rhumerus 29.7095 22.4116 -65.8523
rradius 57.8176
rwrist 32.3592
rhand -31.8156 14.6596
rfingers 7.12502
rthumb -5.07064 -15.2597
lclavicle -7.70415e-014 4.2689e-014
lhumerus 33.2563 -22.4327 73.5953
lradius 51.9516
lwrist -17.7891
lhand -30.5986 22.5035
lfingers 7.12502
lthumb -3.89556 52.4476
rfemur -78.5838 -15.4191 12.2199
rtibia 91.6681
rfoot 6.39803 -5.46289
rtoes 10.8356
lfemur -76.12 18.2181 -8.90782
ltibia 88.1391
lfoot 11.9236 -12.4182
ltoes -10.4212
2203
root 1.09392 10.1362 -7.02609 343.363 -66.677 -361.681
lowerback 40.1618 1.59324 1.65731
upperback 14.0743 1.112 0.0900189
thorax -3.70178 -0.0208568 -1.12143
lowerneck -11.8021 5.7095 -2.08043
upperneck 2.54426 7.86096 0.693156
head 2.75429 3.90877 1.049
rclavicle -2.54895e-014 -1.70753e-015
rhumerus 29.5655 22.4477 -65.7598
rradius 58.0151
rwrist 32.2605
rhand -31.6608 14.3646
rfingers 7.12502
rthumb -4.92118 -15.5582
lclavicle -2.54895e-014 -1.70753e-015
lhumerus 32.9574 -22.4175 73.8097
lradius 52.6217
lwrist -16.9182
lhand -31.5273 23.3302
lfingers 7.12502
lthumb -4.79226 53.256
rfemur -78.6346 -15.4039 12.4204
rtibia 91.6594
rfoot 6.33406 -5.52452
rtoes 11.2826
lfemur -76.2376 18.2562 -8.7099
ltibia 88.1668
lfoot 12.036 -12.3309
ltoes -9.91989
2204
root 1.08663 10.139 -7.02275 343.724 -66.6845 -361.96
lowerback 40.1826 1.58763 1.72076
upperback 14.026 1.14037 0.16586
thorax -3.7602 -0.0072343 -1.08461
lowerneck -11.7242 5.62285 -2.07142
upperneck 2.21731 7.73973 0.677414
head 2.63116 3.85094 1.02304
rclavicle -3.79306e-014 1.37907e-014
rhumerus 29.4612 22.5301 -65.6997
rradius 58.0925
rwrist 32.3519
rhand -31.9277 14.4095
rfingers 7.12502
rthumb -5.17892 -15.5072
lclavicle -3.79306e-014 1.37907e-014
lhumerus 32.6537 -22.2302 74.0159
lradius 53.2531
lwrist -16.729
lhand -31.6903 23.9176
lfingers 7.12502
lthumb -4.94968 53.8398
rfemur -78.7145 -15.4049 12.5694
rtibia 91.6629
rfoot 6.31506 -5.53359
rtoes 10.9694
lfemur -76.3632 18.2349 -8.61886
ltibia 88.1873
lfoot 11.9595 -12.4261
ltoes -10.5257
2205
root 1.07964 10.1408 -7.02202 343.656 -66.6435 -361.788
lowerback 40.1593 1.60248 1.58704
upperback 14.0386 1.1078 0.163774
thorax -3.74382 -0.0276687 -1.00609
lowerneck -11.5915 5.53594 -2.0503
upperneck 1.76427 7.61303 0.681471
head 2.4554 3.79221 0.995677
rclavicle 1.80583e-014 -1.55922e-015
rhumerus 29.4975 22.6982 -65.6758
rradius 58.1142
rwrist 32.5582
rhand -32.5179 14.0714
rfingers 7.12502
rthumb -5.74874 -15.8306
lclavicle 1.80583e-014 -1.55922e-015
lhumerus 32.5262 -22.107 73.9262
lradius 53.8222
lwrist -16.4617
lhand -31.6911 24.4018
lfingers 7.12502
lthumb -4.95051 54.3239
rfemur -78.8167 -15.4662 12.5568
rtibia 91.6904
rfoot 6.31914 -5.50043
rtoes 10.4508
lfemur -76.4393 18.1985 -8.71233
ltibia 88.1968
lfoot 11.8252 -12.5165
ltoes -11.0944
2206
root 1.07396 10.1419 -7.02264 343.358 -66.5926 -361.374
lowerback 40.0808 1.60143 1.36583
upperback 14.1218 1.01111 0.109427
thorax -3.63542 -0.0816696 -0.914163
lowerneck -11.5974 5.45961 -2.12396
upperneck 1.41716 7.51551 0.720193
head 2.33652 3.74696 1.00573
rclavicle -2.10556e-014 -4.15584e-015
rhumerus 29.6916 22.9463 -65.5641
rradius 58.1355
rwrist 32.2218
rhand -33.0752 13.9194
rfingers 7.12502
rthumb -6.28685 -15.9673
lclavicle -2.10556e-014 -4.15584e-015
lhumerus 32.4671 -21.8808 73.831
lradius 54.3174
lwrist -15.819
lhand -32.1239 24.9317
lfingers 7.12502
lthumb -5.36835 54.8437
rfemur -78.9437 -15.5737 12.4258
rtibia 91.7361
rfoot 6.33947 -5.43386
rtoes 10.6478
lfemur -76.4917 18.1571 -8.87961
ltibia 88.2034
lfoot 11.785 -12.5019
ltoes -11.0758
2207
root 1.06801 10.1418 -7.02299 343.365 -66.5261 -361.236
lowerback 40.0021 1.59271 1.22161
upperback 14.1777 0.942541 0.111987
thorax -3.55491 -0.120962 -0.812283
lowerneck -11.6351 5.34168 -2.25867
upperneck 1.0648 7.37021 0.785155
head 2.21998 3.67818 1.03325
rclavicle 1.31695e-015 8.69683e-015
rhumerus 29.8688 23.1308 -65.3511
rradius 58.1246
rwrist 31.5232
rhand -33.4135 14.3381
rfingers 7.12502
rthumb -6.61336 -15.5387
lclavicle 1.31695e-015 8.69683e-015
lhumerus 32.3671 -21.662 73.9214
lradius 54.7672
lwrist -14.9609
lhand -33.0022 25.0927
lfingers 7.12502
lthumb -6.2163 54.9815
rfemur -79.1179 -15.6867 12.3669
rtibia 91.7928
rfoot 6.31271 -5.427
rtoes 11.387
lfemur -76.6493 18.1049 -8.97491
ltibia 88.2145
lfoot 11.8408 -12.4399
ltoes -10.9884
2208
root 1.0616 10.1417 -7.02163 343.759 -66.5003 -361.489
lowerback 39.9401 1.57167 1.28235
upperback 14.1843 0.942367 0.134368
thorax -3.52789 -0.118592 -0.819865
lowerneck -11.5279 5.15467 -2.304
upperneck 0.604034 7.11727 0.842557
head 2.04729 3.55676 1.02995
rclavicle -3.1818e-014 1.96921e-014
rhumerus 29.9212 23.1885 -65.2335
rradius 58.1203
rwrist 31.0184
rhand -33.692 14.4823
rfingers 7.12502
rthumb -6.88225 -15.3858
lclavicle -3.1818e-014 1.96921e-014
lhumerus 32.1987 -21.5182 74.1678
lradius 55.2264
lwrist -14.4811
lhand -33.4544 24.731
lfingers 7.12502
lthumb -6.65286 54.6065
rfemur -79.288 -15.7476 12.5377
rtibia 91.825
rfoot 6.25246 -5.46543
rtoes 11.2923
lfemur -76.8601 18.0905 -8.92562
ltibia 88.2315
lfoot 11.8064 -12.4859
ltoes -11.2659
2209
root 1.05682 10.144 -7.0196 344.151 -66.5009 -361.814
lowerback 39.9208 1.50635 1.47088
upperback 14.1986 0.92728 0.0900345
thorax -3.5014 -0.116548 -0.958297
lowerneck -11.1841 4.97732 -2.26277
upperneck -0.0398407 6.86252 0.843754
head 1.77774 3.43399 0.981858
rclavicle 3.69615e-014 -1.72446e-014
rhumerus 29.9535 23.2215 -65.2717
rradius 58.1201
rwrist 30.6587
rhand -34.1213 14.1907
rfingers 7.12502
rthumb -7.2967 -15.6635
lclavicle 3.69615e-014 -1.72446e-014
lhumerus 32.0273 -21.3819 74.2876
lradius 55.7245
lwrist -14.1392
lhand -33.4571 24.3761
lfingers 7.12502
lthumb -6.65551 54.2515
rfemur -79.3679 -15.8357 12.7792
rtibia 91.8282
rfoot 6.24072 -5.40902
rtoes 10.7669
lfemur -76.9655 18.0529 -8.81085
ltibia 88.2376
lfoot 11.708 -12.5451
ltoes -11.6126
2210
root 1.05362 10.1487 -7.01862 344.129 -66.479 -361.768
lowerback 39.9799 1.4711 1.48868
upperback 14.2122 0.882765 0.0286851
thorax -3.50394 -0.135988 -1.0162
lowerneck -10.6351 4.81589 -2.27354
upperneck -0.876674 6.63313 0.773996
head 1.41199 3.32244 0.911538
rclavicle -2.01766e-014 1.16289e-014
rhumerus 29.9867 23.3492 -65.2614
rradius 58.1681
rwrist 30.2361
rhand -34.6622 13.8552
rfingers 7.12502
rthumb -7.81874 -15.9802
lclavicle -2.01766e-014 1.16289e-014
lhumerus 31.8818 -21.2764 74.2265
lradius 56.1465
lwrist -13.5719
lhand -33.8422 24.4515
lfingers 7.12502
lthumb -7.02723 54.3149
rfemur -79.3693 -15.9126 12.7627
rtibia 91.8246
rfoot 6.24884 -5.34364
rtoes 10.8994
lfemur -76.944 17.9893 -8.81787
ltibia 88.2249
lfoot 11.7644 -12.3828
ltoes -11.101
2211
root 1.0511 10.1547 -7.02048 343.733 -66.4571 -361.334
lowerback 40.0663 1.52341 1.2733
upperback 14.2205 0.860229 -0.0166705
thorax -3.52566 -0.15482 -0.944998
lowerneck -10.2831 4.5658 -2.51168
upperneck -1.5122 6.31057 0.97251
head 1.13749 3.16908 0.973927
rclavicle 5.39203e-015 -8.10048e-015
rhumerus 30.0032 23.5356 -65.161
rradius 58.276
rwrist 29.7178
rhand -35.2725 13.5119
rfingers 7.12502
rthumb -8.40778 -16.3007
lclavicle 5.39203e-015 -8.10048e-015
lhumerus 31.747 -21.1806 74.1892
lradius 56.4447
lwrist -13.0019
lhand -34.4808 24.7368
lfingers 7.12502
lthumb -7.64366 54.5787
rfemur -79.3564 -15.899 12.5735
rtibia 91.8023
rfoot 6.28268 -5.30043
rtoes 10.6946
lfemur -76.8578 17.9669 -8.95614
ltibia 88.1954
lfoot 11.8023 -12.279
ltoes -10.6707
2212
root 1.04957 10.1598 -7.02282 343.469 -66.4468 -361.024
lowerback 40.0825 1.56256 1.14693
upperback 14.2753 0.850076 -0.0668245
thorax -3.4723 -0.164297 -0.929115
lowerneck -10.4027 4.22566 -2.93081
upperneck -1.69056 5.89526 1.5207
head 1.08324 2.97451 1.20159
rclavicle -1.11568e-014 -2.57923e-014
rhumerus 30.0823 23.6205 -65.085
rradius 58.3385
rwrist 29.2701
rhand -35.9174 13.2761
rfingers 7.12502
rthumb -9.03008 -16.5106
lclavicle -1.11568e-014 -2.57923e-014
lhumerus 31.7496 -21.1784 74.0785
lradius 56.6709
lwrist -12.502
lhand -34.9104 25.0603
lfingers 7.12502
lthumb -8.0583 54.8867
rfemur -79.3501 -15.8334 12.4648
rtibia 91.7675
rfoot 6.31466 -5.29363
rtoes 10.3099
lfemur -76.8041 17.9687 -9.06317
ltibia 88.1585
lfoot 11.7102 -12.3594
ltoes -11.1229
2213
root 1.04812 10.1637 -7.02185 343.629 -66.474 -361.106
lowerback 40.0044 1.52146 1.22492
upperback 14.3513 0.816654 -0.11704
thorax -3.36338 -0.176584 -1.01015
lowerneck -10.6246 3.9203 -3.27618
upperneck -1.76748 5.52406 1.96787
head 1.08711 2.79941 1.39436
rclavicle -3.23025e-014 2.78299e-015
rhumerus 30.2206 23.705 -65.019
rradius 58.4165
rwrist 28.9221
rhand -36.4788 13.0973
rfingers 7.12502
rthumb -9.57181 -16.6653
lclavicle -3.23025e-014 2.78299e-015
lhumerus 31.8224 -21.1969 73.8924
lradius 56.8592
lwrist -11.991
lhand -35.2946 25.4985
lfingers 7.12502
lthumb -8.42907 55.3103
rfemur -79.3968 -15.754 12.5228
rtibia 91.721
rfoot 6.29753 -5.38936
rtoes 10.2478
lfemur -76.864 17.956 -9.03521
ltibia 88.1326
lfoot 11.6831 -12.362
ltoes -11.3755
2214
root 1.04601 10.1675 -7.01987 344.005 -66.5219 -361.387
lowerback 39.9018 1.46618 1.30257
upperback 14.4186 0.767367 -0.154561
thorax -3.25716 -0.196991 -1.07203
lowerneck -10.7117 3.68721 -3.36454
upperneck -1.9732 5.22119 2.12074
head 1.03941 2.65133 1.44557
rclavicle 1.74931e-014 -4.08502e-014
rhumerus 30.3701 23.8767 -64.9822
rradius 58.5593
rwrist 28.5944
rhand -36.9559 12.9184
rfingers 7.12502
rthumb -10.0321 -16.8224
lclavicle 1.74931e-014 -4.08502e-014
lhumerus 31.8312 -21.0854 73.7517
lradius 57.0284
lwrist -11.4832
lhand -35.6612 26.0366
lfingers 7.12502
lthumb -8.78287 55.8338
rfemur -79.4883 -15.708 12.6707
rtibia 91.6764
rfoot 6.27921 -5.48761
rtoes 10.2768
lfemur -76.9823 17.9114 -8.90032
ltibia 88.1175
lfoot 11.7335 -12.269
ltoes -11.1547
2215
root 1.04328 10.171 -7.01917 344.323 -66.5673 -361.639
lowerback 39.8014 1.44765 1.3364
upperback 14.5012 0.747246 -0.161991
thorax -3.13541 -0.206889 -1.09015
lowerneck -10.7759 3.47239 -3.40652
upperneck -2.16555 4.93813 2.20606
head 0.994605 2.51135 1.46776
rclavicle -1.00883e-014 -3.34952e-014
rhumerus 30.4725 24.0167 -64.8937
rradius 58.7824
rwrist 28.246
rhand -37.354 12.7756
rfingers 7.12502
rthumb -10.4162 -16.9464
lclavicle -1.00883e-014 -3.34952e-014
lhumerus 31.8309 -20.9893 73.6866
lradius 57.145
lwrist -10.9363
lhand -35.9433 26.336
lfingers 7.12502
lthumb -9.05507 56.1217
rfemur -79.5636 -15.6608 12.7933
rtibia 91.6594
rfoot 6.27514 -5.53946
rtoes 10.3678
lfemur -77.0613 17.8961 -8.75092
ltibia 88.1133
lfoot 11.7886 -12.1654
ltoes -10.8686
2216
root 1.03962 10.1734 -7.01896 344.449 -66.613 -361.721
lowerback 39.7625 1.48037 1.33622
upperback 14.5492 0.783534 -0.13197
thorax -3.0701 -0.191935 -1.07133
lowerneck -10.7222 3.22725 -3.59522
upperneck -2.35856 4.62939 2.32515
head 0.927075 2.35998 1.52223
rclavicle -8.64713e-015 -6.95746e-015
rhumerus 30.4426 24.1436 -64.6659
rradius 59.0975
rwrist 27.7995
rhand -37.6127 12.5328
rfingers 7.12502
rthumb -10.6657 -17.1765
lclavicle -8.64713e-015 -6.95746e-015
lhumerus 31.7774 -21.0196 73.7508
lradius 57.2256
lwrist -10.3526
lhand -36.3958 26.3839
lfingers 7.12502
lthumb -9.49173 56.1501
rfemur -79.6046 -15.5714 12.8374
rtibia 91.6536
rfoot 6.26737 -5.57104
rtoes 10.2542
lfemur -77.0905 17.94 -8.68462
ltibia 88.119
lfoot 11.8086 -12.1432
ltoes -10.698
